<svg class="logo" width="60" height="60" viewBox="0 0 60 60" fill="none" xmlns="http://www.w3.org/2000/svg">
	<rect class="logo-social-bg" width="60" height="60"/>
	<path class="logo-social" d="M26.5288 29.2826C26.5288 29.2826 29.9357 29.0274 29.9357 24.9973C29.9357 20.9669 27.1484 19 23.6178 19H12V41.5225H23.6178C23.6178 41.5225 30.7101 41.7485 30.7101 34.8749C30.7101 34.875 31.0193 29.2826 26.5288 29.2826ZM22.7816 23.0031H23.6178C23.6178 23.0031 25.197 23.0031 25.197 25.3465C25.197 27.6896 24.2683 28.0293 23.2149 28.0293H17.119V23.0031H22.7816ZM23.2895 37.5195H17.119V31.5007H23.6178C23.6178 31.5007 25.9716 31.4695 25.9716 34.5937C25.9716 37.2281 24.2136 37.4996 23.2895 37.5195ZM40.1689 24.7304C31.5829 24.7304 31.5905 33.3842 31.5905 33.3842C31.5905 33.3842 31.0014 41.9936 40.1689 41.9936C40.1689 41.9936 47.8083 42.4339 47.8083 36.0045H43.8795C43.8795 36.0045 44.0105 38.4257 40.2999 38.4257C40.2999 38.4257 36.3704 38.6914 36.3704 34.5073H47.9394C47.9394 34.5072 49.2052 24.7304 40.1689 24.7304ZM36.3272 31.5007C36.3272 31.5007 36.807 28.0292 40.2562 28.0292C43.7046 28.0292 43.6614 31.5007 43.6614 31.5007H36.3272ZM44.5766 23.1003H35.3654V20.3269H44.5766V23.1003Z"/>
</svg>
