<svg class="logo" width="60" height="60" viewBox="0 0 60 60" fill="none" xmlns="http://www.w3.org/2000/svg">
	<g clip-path="url(#clip0_189_50)">
		<rect class="logo-social" width="60" height="60"/>
		<path class="logo-social-bg" fill-rule="evenodd" clip-rule="evenodd" d="M60 0H0V60H20.5783C22.0841 60 22.5681 59.28 22.5681 58.4656C22.5681 57.7525 22.519 55.3081 22.519 52.7612C14.1668 54.595 12.4275 49.0944 12.4275 49.0944C11.0853 45.5294 9.09646 44.6131 9.09646 44.6131C6.36279 42.7287 9.29558 42.7287 9.29558 42.7287C12.3279 42.9325 13.9191 45.8862 13.9191 45.8862C16.603 50.5712 20.9278 49.2475 22.6677 48.4325C22.916 46.4462 23.7119 45.0712 24.5569 44.3075C17.8955 43.5944 10.8867 40.9462 10.8867 29.1306C10.8867 25.7694 12.079 23.0194 13.9683 20.8806C13.6702 20.1169 12.626 16.9587 14.267 12.7319C14.267 12.7319 16.8021 11.9169 22.5184 15.8894C24.9657 15.216 27.4896 14.8735 30.0249 14.8706C32.5601 14.8706 35.1444 15.2275 37.5308 15.8894C43.2477 11.9169 45.7828 12.7319 45.7828 12.7319C47.4238 16.9587 46.379 20.1169 46.0809 20.8806C48.0199 23.0194 49.163 25.7694 49.163 29.1306C49.163 40.9462 42.1543 43.5431 35.4431 44.3075C36.537 45.275 37.481 47.1081 37.481 50.0112C37.481 54.1362 37.4319 57.4469 37.4319 58.465C37.4319 59.28 38.1452 60 39.6509 60L60 59.9425V0Z"/>
	</g>
	<defs>
		<clipPath id="clip0_189_50">
			<rect class="logo-social-bg" width="60" height="60"/>
		</clipPath>
	</defs>
</svg>
