<svg class="logo" width="60" height="60" viewBox="0 0 60 60" fill="none" xmlns="http://www.w3.org/2000/svg">
    <rect class="logo-shape" width="60" height="60" rx="8"/>
    <path class="logo-cvb" d="M60 8C60 3.58172 56.4183 0 52 0H8C3.58172 0 0 3.58172 0 8V52C0 56.4183 3.58172 60 8 60H52C56.4183 60 60 56.4183 60 52V8ZM20.8571 24.2857V46H14V24.2857H20.8571ZM14 17.9657C14 16.3657 15.3714 15.1429 17.4286 15.1429C19.4857 15.1429 20.7771 16.3657 20.8571 17.9657C20.8571 19.5657 19.5771 20.8571 17.4286 20.8571C15.3714 20.8571 14 19.5657 14 17.9657ZM46 46H39.1429C39.1429 46 39.1429 35.4171 39.1429 34.5714C39.1429 32.2857 38 30 35.1429 29.9543H35.0514C32.2857 29.9543 31.1429 32.3086 31.1429 34.5714C31.1429 35.6114 31.1429 46 31.1429 46H24.2857V24.2857H31.1429V27.2114C31.1429 27.2114 33.3486 24.2857 37.7829 24.2857C42.32 24.2857 46 27.4057 46 33.7257V46Z"/>
</svg>
