<svg class="logo" width="60" height="60" viewBox="0 0 60 60" fill="none" xmlns="http://www.w3.org/2000/svg">
    <rect class="logo-social-bg" width="60" height="60"/>
    <path class="logo-social" d="M25.6887 25.5092H31.3943V28.1242H31.4735C31.6584 27.7544 31.9226 27.3846 32.266 27.0148C32.6094 26.645 33.0188 26.3148 33.4943 26.0242C33.9697 25.7337 34.5112 25.496 35.1188 25.311C35.7263 25.1261 36.3867 25.0337 37.0999 25.0337C38.6055 25.0337 39.8206 25.2714 40.7451 25.7469C41.6696 26.1959 42.3828 26.8299 42.8847 27.6488C43.413 28.4676 43.7696 29.4318 43.9545 30.5412C44.1394 31.6506 44.2319 32.8525 44.2319 34.1468V44.7655H38.2885V35.3355C38.2885 34.7808 38.2621 34.2128 38.2093 33.6317C38.1829 33.0242 38.064 32.4695 37.8527 31.9676C37.6678 31.4657 37.364 31.0563 36.9414 30.7393C36.5452 30.4223 35.964 30.2638 35.198 30.2638C34.432 30.2638 33.8112 30.4091 33.3358 30.6997C32.8603 30.9638 32.4905 31.3336 32.2264 31.8091C31.9886 32.2581 31.8301 32.7732 31.7509 33.3544C31.6716 33.9355 31.632 34.543 31.632 35.177V44.7655H25.6887V25.5092Z"/>
    <path class="logo-social" d="M15.4755 25.5093H21.4188V44.7657H15.4755V25.5093ZM15 19.4471C15 18.4962 15.3302 17.6905 15.9905 17.0302C16.6773 16.3434 17.4962 16 18.4471 16C19.398 16 20.2037 16.3434 20.8641 17.0302C21.5509 17.6905 21.8942 18.4962 21.8942 19.4471C21.8942 20.3981 21.5509 21.2169 20.8641 21.9037C20.2037 22.5641 19.398 22.8943 18.4471 22.8943C17.4962 22.8943 16.6773 22.5641 15.9905 21.9037C15.3302 21.2169 15 20.3981 15 19.4471Z"/>
</svg>
