<svg class="logo" width="60" height="60" viewBox="0 0 60 60" fill="none" xmlns="http://www.w3.org/2000/svg">
    <rect class="logo-cvb" width="60" height="60" rx="8"/>
    <path class="logo-shape" d="M40.4424 19.2207C40.4424 19.2207 43.2176 18.1386 42.9863 20.7666C42.9092 21.8488 42.2155 25.6363 41.6758 29.733L39.8257 41.8685C39.8257 41.8685 39.6715 43.6463 38.2839 43.9555C36.8962 44.2647 34.8149 42.8734 34.4294 42.5642C34.121 42.3323 28.6477 38.8539 26.7204 37.1534C26.1808 36.6897 25.5641 35.7621 26.7975 34.6799L34.8919 26.9504C35.817 26.0228 36.7421 23.8585 32.8876 26.4866L22.0951 33.8297C22.0951 33.8297 20.8617 34.6027 18.549 33.907L13.5382 32.3611C13.5382 32.3611 11.688 31.2017 14.8487 30.0422C22.5577 26.4092 32.0397 22.699 40.4424 19.2207Z"/>
</svg>
